<?xml version="1.0"?>
<svg width="40" height="40" xmlns="http://www.w3.org/2000/svg" xmlns:svg="http://www.w3.org/2000/svg">
 <g class="layer">
  <title>Layer 1</title>
  <circle cx="20" cy="20" fill="#ffffff" id="svg_1" r="20" stroke="#ffffff" stroke-linejoin="round" transform="matrix(0.999678 0.0253885 -0.0253885 0.999678 0.51735 -0.498109)"/>
  <path d="m24.97,17.16c0,0.15 1.97,0.3 1.9,0.43c-0.06,0.14 -0.15,0.26 -0.27,0.35l-6,4.83c-0.18,0.15 -0.4,0.23 -0.63,0.23c-0.24,0 -0.46,-0.08 -0.64,-0.23l-6,-5c-0.2,-0.17 -0.33,-0.41 -0.36,-0.68c-0.02,-0.26 0.06,-0.52 0.23,-0.73c0.17,-0.2 0.41,-0.33 0.68,-0.36c0.26,-0.02 0.53,0.06 0.73,0.23l5.36,4.47l5.36,-4.32c0.15,-0.12 0.33,-0.2 0.52,-0.22c0.19,-0.03 0.38,0 0.55,0.09c0.17,0.08 0.32,0.21 0.42,0.37c0.1,0.16 -1.85,0.35 -1.85,0.54z" fill="#757aef" id="svg_2" stroke="#757aef" transform="matrix(1 0 0 1 0 0) rotate(179.1 19.9194 19.4985)"/>
 </g>

</svg>