<svg width="442" height="269" viewBox="0 0 442 269" fill="none" xmlns="http://www.w3.org/2000/svg">
<path d="M421.823 0C432.868 0 441.823 8.95429 441.823 20V85.8705L414.635 130.575C413.2 132.934 413.2 136.76 414.635 139.119L441.823 183.823V248.372C441.823 259.418 432.868 268.372 421.823 268.372H47.8226C36.7769 268.372 27.8226 259.418 27.8226 248.372V20C27.8226 8.9543 36.7769 0 47.8226 0H421.823Z" fill="#969AF7"/>
<path d="M421.823 0C432.868 0 441.823 8.95429 441.823 20V85.8705L414.635 130.575C413.2 132.934 413.2 136.76 414.635 139.119L441.823 183.823V248.372C441.823 259.418 432.868 268.372 421.823 268.372H47.8226C36.7769 268.372 27.8226 259.418 27.8226 248.372V20C27.8226 8.9543 36.7769 0 47.8226 0H421.823Z" fill="url(#paint0_linear_6430_7)"/>
<path d="M50.1993 65.9281C48.6611 63.6347 46.1672 63.6347 44.629 65.9281L1.15461 130.747C-0.383569 133.04 -0.383567 136.758 1.15461 139.051L44.629 203.87C46.1672 206.163 48.6611 206.163 50.1993 203.87L93.6737 139.051C95.2119 136.758 95.2118 133.04 93.6737 130.747L50.1993 65.9281Z" fill="#969AF7"/>
<path d="M50.1993 65.9281C48.6611 63.6347 46.1672 63.6347 44.629 65.9281L1.15461 130.747C-0.383569 133.04 -0.383567 136.758 1.15461 139.051L44.629 203.87C46.1672 206.163 48.6611 206.163 50.1993 203.87L93.6737 139.051C95.2119 136.758 95.2118 133.04 93.6737 130.747L50.1993 65.9281Z" fill="url(#paint1_linear_6430_7)"/>
<mask id="mask0_6430_7" style="mask-type:alpha" maskUnits="userSpaceOnUse" x="0" y="0" width="442" height="269">
<path d="M421.822 0C432.867 0 441.822 8.95429 441.822 20V85.8705L414.634 130.575C413.199 132.934 413.199 136.76 414.634 139.119L441.822 183.823V248.372C441.822 259.418 432.867 268.372 421.822 268.372H47.8216C36.7759 268.372 27.8216 259.418 27.8216 248.372V20C27.8216 8.9543 36.7759 0 47.8216 0H421.822Z" fill="#969AF7"/>
<path d="M421.822 0C432.867 0 441.822 8.95429 441.822 20V85.8705L414.634 130.575C413.199 132.934 413.199 136.76 414.634 139.119L441.822 183.823V248.372C441.822 259.418 432.867 268.372 421.822 268.372H47.8216C36.7759 268.372 27.8216 259.418 27.8216 248.372V20C27.8216 8.9543 36.7759 0 47.8216 0H421.822Z" fill="url(#paint2_linear_6430_7)"/>
<path d="M50.1983 65.9281C48.6601 63.6347 46.1662 63.6347 44.628 65.9281L1.15363 130.747C-0.384545 133.04 -0.384543 136.758 1.15363 139.051L44.6281 203.87C46.1662 206.163 48.6601 206.163 50.1983 203.87L93.6727 139.051C95.2109 136.758 95.2109 133.04 93.6727 130.747L50.1983 65.9281Z" fill="#969AF7"/>
<path d="M50.1983 65.9281C48.6601 63.6347 46.1662 63.6347 44.628 65.9281L1.15363 130.747C-0.384545 133.04 -0.384543 136.758 1.15363 139.051L44.6281 203.87C46.1662 206.163 48.6601 206.163 50.1983 203.87L93.6727 139.051C95.2109 136.758 95.2109 133.04 93.6727 130.747L50.1983 65.9281Z" fill="url(#paint3_linear_6430_7)"/>
</mask>
<g mask="url(#mask0_6430_7)">
<rect opacity="0.06" x="361.199" y="110.372" width="441.517" height="441.517" rx="30" transform="rotate(45 361.199 110.372)" fill="white"/>
</g>
<defs>
<linearGradient id="paint0_linear_6430_7" x1="-53.7518" y1="-21.0171" x2="442.158" y2="53.6219" gradientUnits="userSpaceOnUse">
<stop offset="0.0851517" stop-color="#041080"/>
<stop offset="1" stop-color="#0926C0"/>
</linearGradient>
<linearGradient id="paint1_linear_6430_7" x1="-53.7518" y1="-21.0171" x2="442.158" y2="53.6219" gradientUnits="userSpaceOnUse">
<stop offset="0.0851517" stop-color="#041080"/>
<stop offset="1" stop-color="#0926C0"/>
</linearGradient>
<linearGradient id="paint2_linear_6430_7" x1="-53.7528" y1="-21.0171" x2="442.157" y2="53.6219" gradientUnits="userSpaceOnUse">
<stop offset="0.0851517" stop-color="#041080"/>
<stop offset="1" stop-color="#0926C0"/>
</linearGradient>
<linearGradient id="paint3_linear_6430_7" x1="-53.7528" y1="-21.0171" x2="442.157" y2="53.6219" gradientUnits="userSpaceOnUse">
<stop offset="0.0851517" stop-color="#041080"/>
<stop offset="1" stop-color="#0926C0"/>
</linearGradient>
</defs>
</svg>
